{"glyphs":{"0":{"ha":1049,"x_min":65,"x_max":983,"o":"m 521 1083 q 701 1040 617 1083 q 847 922 785 997 q 947 746 910 847 q 983 526 983 644 q 947 315 983 414 q 847 144 910 217 q 701 28 785 71 q 521 -14 617 -14 q 344 28 426 -14 q 199 144 261 71 q 101 315 138 217 q 65 526 65 414 q 101 746 65 644 q 199 922 138 847 q 344 1040 261 997 q 521 1083 426 1083 m 521 67 q 610 88 571 67 q 678 163 650 110 q 720 303 706 215 q 735 522 735 390 q 720 752 735 660 q 678 900 706 844 q 610 979 650 956 q 521 1003 571 1003 q 431 979 471 1003 q 364 900 392 956 q 322 752 336 844 q 307 522 307 660 q 322 303 307 390 q 364 163 336 215 q 431 88 392 110 q 521 67 471 67 z "},"1":{"ha":606,"x_min":42,"x_max":571,"o":"m 419 228 q 424 141 419 174 q 445 90 429 108 q 491 64 461 71 q 571 56 521 57 l 571 0 l 49 0 l 49 56 q 135 65 103 57 q 185 90 168 72 q 209 138 203 107 q 215 218 215 169 l 215 722 q 215 856 215 803 q 208 925 214 908 q 160 963 200 956 q 42 969 121 969 l 42 1025 q 128 1031 79 1026 q 230 1044 178 1036 q 332 1061 282 1051 q 419 1083 382 1071 l 419 228 z "},"2":{"ha":904,"x_min":54,"x_max":838,"o":"m 317 164 l 600 164 q 661 170 635 164 q 708 194 688 176 q 744 244 728 213 q 776 324 761 275 l 838 324 l 782 0 l 54 0 l 54 64 q 325 309 219 206 q 491 494 431 413 q 574 644 551 575 q 597 786 597 713 q 551 946 597 888 q 426 1004 506 1004 q 356 991 389 1004 q 301 954 324 978 q 265 897 278 931 q 251 825 251 864 q 287 715 251 756 q 383 675 322 675 q 345 611 376 635 q 269 588 314 588 q 190 603 226 588 q 126 646 153 618 q 83 712 99 674 q 68 796 68 750 q 97 910 68 858 q 176 1001 125 963 q 298 1062 228 1040 q 450 1083 368 1083 q 600 1061 532 1083 q 717 999 668 1039 q 794 905 767 960 q 821 783 821 850 q 783 621 821 700 q 677 467 744 542 q 517 318 610 392 q 315 171 425 244 l 317 164 z "},"3":{"ha":885,"x_min":51,"x_max":818,"o":"m 596 300 q 554 466 596 407 q 438 525 513 525 q 384 507 410 514 q 340 500 358 500 q 280 516 301 500 q 258 561 258 532 q 279 600 258 586 q 338 614 300 614 q 381 609 357 614 q 425 599 406 604 q 531 651 492 599 q 571 807 571 703 q 531 958 571 907 q 424 1010 492 1010 q 324 979 360 1010 q 289 894 289 949 q 310 832 289 857 q 365 807 332 807 q 329 748 357 769 q 258 726 301 726 q 195 739 225 726 q 143 774 165 751 q 108 824 121 796 q 94 886 94 853 q 118 967 94 931 q 185 1029 142 1003 q 290 1069 229 1056 q 425 1083 350 1083 q 573 1066 507 1083 q 686 1016 639 1049 q 758 938 733 983 q 783 836 783 892 q 769 750 783 792 q 727 674 754 708 q 663 615 700 640 q 583 579 626 590 l 583 571 q 680 528 636 556 q 754 464 724 501 q 801 382 785 426 q 818 288 818 338 q 788 167 818 222 q 705 71 758 111 q 578 8 651 31 q 418 -14 506 -14 q 272 5 339 -14 q 156 56 204 24 q 79 134 107 89 q 51 233 51 179 q 66 306 51 272 q 106 366 81 340 q 164 407 131 392 q 235 422 197 422 q 313 398 281 422 q 353 333 344 374 q 283 299 311 333 q 256 215 256 265 q 299 106 256 147 q 417 65 343 65 q 546 129 496 65 q 596 300 596 193 z "},"4":{"ha":922,"x_min":11,"x_max":865,"o":"m 11 372 l 518 1083 l 650 1083 l 650 376 q 732 384 700 378 q 782 405 764 390 q 807 444 800 419 q 814 510 814 469 l 865 510 l 865 172 l 814 172 q 807 233 814 210 q 782 270 800 257 q 732 288 764 283 q 650 294 700 293 l 650 251 q 655 167 650 203 q 674 106 660 131 q 713 69 688 82 q 779 56 739 57 l 779 0 l 303 0 l 303 56 q 381 70 351 57 q 427 107 411 83 q 449 164 443 131 q 454 242 454 197 l 454 289 l 11 289 l 11 372 m 454 826 l 449 826 l 129 376 l 454 376 l 454 826 z "},"5":{"ha":826,"x_min":14,"x_max":765,"o":"m 281 663 l 283 658 q 349 699 307 683 q 436 715 392 715 q 567 690 507 715 q 671 619 626 664 q 740 513 715 575 q 765 381 765 451 q 731 226 765 297 q 634 101 696 154 q 490 17 572 47 q 311 -14 407 -14 q 192 1 246 -14 q 98 40 138 15 q 36 101 58 65 q 14 178 14 136 q 35 247 14 222 q 97 271 57 271 q 143 256 128 271 q 167 217 158 240 q 183 166 175 193 q 204 115 190 139 q 244 76 218 92 q 315 61 269 61 q 412 86 369 61 q 483 157 454 111 q 528 268 513 203 q 543 413 543 333 q 513 581 543 528 q 408 635 482 635 q 308 605 347 635 q 244 510 268 575 q 220 467 233 478 q 188 457 207 457 q 149 493 149 457 q 151 510 149 499 l 307 1083 q 393 1065 346 1071 q 506 1058 440 1058 q 640 1065 583 1058 q 728 1085 696 1072 l 736 1083 q 650 951 717 997 q 481 904 583 904 l 346 904 l 281 663 z "},"6":{"ha":936,"x_min":67,"x_max":874,"o":"m 874 360 q 842 214 874 282 q 757 95 811 146 q 630 15 703 44 q 474 -14 557 -14 q 308 22 383 -14 q 180 121 233 57 q 97 273 126 185 q 67 468 67 361 q 106 706 67 594 q 211 902 144 818 q 367 1035 278 986 q 557 1083 456 1083 q 661 1072 613 1083 q 745 1039 710 1060 q 801 990 781 1018 q 822 928 822 961 q 797 865 822 888 q 731 842 772 842 q 685 854 701 842 q 656 885 668 867 q 635 924 644 903 q 610 964 625 946 q 574 994 596 982 q 514 1007 551 1007 q 429 977 468 1007 q 362 895 390 947 q 317 772 333 843 q 300 618 300 701 l 304 615 q 398 689 349 665 q 514 713 447 713 q 656 685 590 713 q 770 611 722 658 q 846 499 818 564 q 874 360 874 435 m 297 393 q 344 146 297 229 q 479 63 390 63 q 608 133 567 63 q 650 354 650 204 q 610 560 650 490 q 494 631 571 631 q 388 592 433 631 q 297 468 342 553 l 297 393 z "},"7":{"ha":717,"x_min":26,"x_max":733,"o":"m 317 904 q 224 901 260 904 q 165 890 188 899 q 131 863 143 881 q 106 818 118 846 l 82 764 l 26 764 l 129 1153 l 188 1153 q 183 1131 185 1140 q 181 1113 181 1121 q 204 1078 181 1088 q 292 1069 228 1069 l 733 1069 l 733 1014 q 642 826 681 906 q 575 682 604 746 q 522 562 546 618 q 476 444 499 506 q 426 308 453 382 q 367 135 400 235 q 306 20 339 54 q 224 -14 272 -14 q 158 9 182 -14 q 135 74 135 32 q 140 112 135 92 q 160 165 144 132 q 207 249 176 197 q 288 385 238 301 q 391 556 350 488 q 463 680 432 625 q 519 785 493 735 q 581 904 546 836 l 317 904 z "},"8":{"ha":882,"x_min":69,"x_max":819,"o":"m 361 486 q 273 392 303 447 q 243 269 243 336 q 296 119 243 175 q 439 64 349 64 q 525 78 486 64 q 592 116 564 92 q 637 174 621 140 q 653 249 653 208 q 610 351 653 307 q 475 436 567 396 l 361 486 m 628 622 q 769 481 719 564 q 819 306 819 399 q 791 177 819 236 q 712 76 763 118 q 590 10 661 33 q 436 -14 519 -14 q 291 6 358 -14 q 174 62 224 26 q 97 146 125 97 q 69 251 69 194 q 118 399 69 331 q 258 515 167 467 q 137 642 179 568 q 94 799 94 715 q 188 1006 94 925 q 295 1064 232 1044 q 435 1083 358 1083 q 561 1068 501 1083 q 667 1025 621 1053 q 739 943 714 992 q 764 838 764 894 q 732 724 764 774 q 628 622 700 674 m 525 651 q 587 728 565 685 q 608 817 608 771 q 594 892 608 857 q 556 952 581 926 q 499 992 532 978 q 428 1007 467 1007 q 359 995 390 1007 q 304 963 328 983 q 267 915 281 943 q 254 856 254 888 q 431 689 254 757 l 525 651 z "},"9":{"ha":936,"x_min":63,"x_max":869,"o":"m 63 710 q 94 856 63 788 q 179 974 125 924 q 306 1054 233 1025 q 463 1083 379 1083 q 628 1048 553 1083 q 756 949 703 1013 q 840 796 810 885 q 869 601 869 707 q 831 363 869 475 q 725 167 792 251 q 569 35 658 83 q 379 -14 481 -14 q 275 -2 324 -14 q 191 31 226 10 q 135 80 156 51 q 114 142 114 108 q 139 205 114 182 q 206 228 164 228 q 251 215 233 228 q 280 185 268 203 q 301 145 292 167 q 326 106 311 124 q 363 75 340 88 q 422 63 385 63 q 510 92 469 63 q 580 174 550 122 q 626 297 610 226 q 643 451 643 368 l 639 454 q 543 381 594 404 q 422 357 492 357 q 280 384 346 357 q 166 458 214 411 q 90 570 118 506 q 63 710 63 635 m 639 669 q 592 922 639 838 q 457 1007 546 1007 q 328 936 369 1007 q 286 715 286 865 q 326 509 286 579 q 442 439 365 439 q 549 478 503 439 q 639 601 594 517 l 639 669 z "}," ":{"ha":369,"x_min":0,"x_max":0,"o":""},"n":{"ha":1010,"x_min":35,"x_max":992,"o":"m 357 226 q 360 137 357 169 q 376 87 364 104 q 412 64 388 69 q 478 56 436 58 l 478 0 l 40 0 l 40 56 q 105 64 81 58 q 142 86 129 69 q 160 133 156 103 q 164 217 164 164 l 164 390 q 161 523 164 472 q 154 592 158 574 q 143 622 150 610 q 122 640 136 633 q 88 648 108 646 q 35 650 67 650 l 35 697 l 303 750 l 321 628 l 326 628 q 435 718 372 686 q 572 750 497 750 q 716 726 661 750 q 814 644 771 701 q 856 562 838 613 q 874 422 874 511 l 874 226 q 877 137 874 169 q 892 87 881 104 q 928 64 904 69 q 992 56 951 58 l 992 0 l 557 0 l 557 56 q 623 63 599 57 q 660 86 647 69 q 676 134 672 103 q 681 217 681 165 l 681 406 q 672 525 681 476 q 645 603 664 574 q 596 647 626 633 q 519 660 565 660 q 443 635 475 660 q 388 565 411 610 q 366 501 375 540 q 357 418 357 461 l 357 226 z "},"u":{"ha":985,"x_min":18,"x_max":967,"o":"m 646 508 q 643 597 646 564 q 628 647 640 629 q 591 670 615 664 q 525 681 567 676 l 525 736 l 839 736 l 839 315 q 841 183 839 231 q 849 111 843 135 q 858 83 853 93 q 876 66 864 72 q 910 58 889 60 q 967 56 932 56 l 967 1 l 690 -15 l 675 108 l 669 108 q 568 18 633 50 q 422 -14 503 -14 q 196 92 274 -14 q 136 321 136 172 l 136 508 q 133 598 136 565 q 119 647 131 631 q 83 670 107 664 q 18 681 60 676 l 18 736 l 329 736 l 329 343 q 364 140 329 203 q 475 76 399 76 q 601 151 557 76 q 646 364 646 224 l 646 508 z "},"h":{"ha":992,"x_min":22,"x_max":974,"o":"m 339 228 q 342 138 339 171 q 358 88 346 106 q 394 64 369 69 q 460 56 418 58 l 460 0 l 22 0 l 22 56 q 89 64 64 58 q 126 86 114 69 q 142 134 139 103 q 146 218 146 165 l 146 789 q 144 920 146 872 q 136 993 142 968 q 126 1022 132 1011 q 109 1038 121 1032 q 77 1047 97 1044 q 26 1049 57 1049 l 26 1100 l 336 1153 l 336 640 l 342 640 q 438 724 385 697 q 567 750 492 750 q 778 667 703 750 q 835 566 814 625 q 856 443 856 507 l 856 228 q 858 137 856 169 q 873 87 861 104 q 908 64 885 69 q 974 56 932 58 l 974 0 l 539 0 l 539 56 q 605 63 581 57 q 642 86 629 69 q 659 134 656 103 q 663 218 663 165 l 663 389 q 631 597 663 536 q 521 658 599 658 q 389 597 438 658 q 352 518 365 565 q 339 413 339 471 l 339 228 z "},"l":{"ha":493,"x_min":21,"x_max":464,"o":"m 343 228 q 347 139 343 172 q 364 88 351 106 q 400 63 376 69 q 464 56 424 57 l 464 0 l 26 0 l 26 56 q 90 65 65 57 q 127 90 114 72 q 145 138 140 107 q 150 218 150 169 l 150 792 q 147 924 150 872 q 140 996 144 976 q 109 1042 133 1031 q 21 1053 85 1053 l 21 1100 l 343 1153 l 343 228 z "},"r":{"ha":692,"x_min":36,"x_max":689,"o":"m 358 215 q 363 130 358 161 q 383 82 368 99 q 428 60 399 65 q 506 56 457 56 l 506 0 l 42 0 l 42 56 q 108 64 83 58 q 146 86 133 69 q 162 134 158 103 q 165 218 165 165 l 165 388 q 161 525 165 474 q 143 604 157 576 q 103 641 129 632 q 36 650 78 650 l 36 699 l 314 750 l 336 590 l 342 590 q 440 707 379 664 q 569 750 501 750 q 656 724 622 750 q 689 657 689 697 q 663 582 689 613 q 593 551 638 551 q 556 560 572 551 q 526 578 539 568 q 499 598 513 589 q 472 607 486 607 q 422 572 446 607 q 383 479 399 538 q 365 385 372 438 q 358 282 358 333 l 358 215 z "},"o":{"ha":917,"x_min":51,"x_max":865,"o":"m 456 750 q 613 722 539 750 q 744 643 688 693 q 833 524 800 593 q 865 374 865 456 q 833 218 865 289 q 744 96 800 147 q 613 15 688 44 q 456 -14 539 -14 q 300 15 374 -14 q 171 94 226 43 q 83 217 115 146 q 51 374 51 289 q 83 525 51 456 q 171 644 115 594 q 300 722 226 694 q 456 750 374 750 m 456 669 q 379 648 414 669 q 320 588 344 626 q 283 494 296 549 q 269 372 269 439 q 283 247 269 303 q 320 153 296 192 q 378 92 344 114 q 456 71 413 71 q 534 92 499 71 q 594 153 569 114 q 633 249 619 193 q 647 372 647 304 q 633 493 647 439 q 594 587 619 547 q 534 648 569 626 q 456 669 499 669 z "},"p":{"ha":968,"x_min":24,"x_max":915,"o":"m 303 646 l 308 646 q 547 750 400 750 q 695 722 628 750 q 812 642 763 693 q 888 522 861 592 q 915 368 915 451 q 888 215 915 285 q 813 94 861 146 q 697 15 764 43 q 550 -14 629 -14 q 344 78 415 -14 l 339 78 l 339 -115 q 344 -204 339 -171 q 368 -256 350 -237 q 419 -281 386 -274 q 506 -289 451 -287 l 506 -347 l 26 -347 l 26 -289 q 88 -281 64 -287 q 124 -256 111 -274 q 142 -206 138 -237 q 147 -125 147 -175 l 147 392 q 144 513 147 456 q 138 594 142 571 q 106 639 131 626 q 24 651 82 651 l 24 706 l 303 744 l 303 646 m 539 671 q 454 651 494 671 q 390 600 414 632 q 354 520 367 568 q 342 417 342 472 l 342 322 q 390 154 342 224 q 539 78 443 78 q 665 148 624 78 q 706 365 706 218 q 539 671 706 671 z "},"d":{"ha":964,"x_min":54,"x_max":932,"o":"m 668 89 l 663 89 q 414 -14 567 -14 q 269 14 335 -14 q 155 92 203 42 q 81 210 107 142 q 54 363 54 279 q 81 517 54 446 q 155 640 108 588 q 266 721 201 692 q 406 750 331 750 q 528 729 475 750 q 622 658 582 708 l 628 658 l 628 776 q 626 917 628 858 q 619 994 624 976 q 577 1037 613 1024 q 468 1050 542 1050 l 468 1097 l 819 1153 l 819 358 q 822 198 819 254 q 829 113 824 142 q 838 83 832 94 q 854 66 843 72 q 884 58 865 60 q 932 56 903 56 l 932 1 l 668 -14 l 668 89 m 625 399 q 614 497 625 451 q 581 576 603 542 q 517 638 556 617 q 433 658 478 658 q 308 583 351 658 q 265 365 265 508 q 308 143 265 221 q 432 65 351 65 q 519 89 478 65 q 588 153 561 113 q 616 228 607 183 q 625 344 625 274 l 625 399 z "},"b":{"ha":936,"x_min":-1,"x_max":883,"o":"m 313 304 q 327 209 313 253 q 367 133 342 165 q 426 83 392 101 q 503 65 461 65 q 629 142 586 65 q 672 367 672 218 q 630 587 672 511 q 503 663 588 663 q 410 635 453 663 q 344 560 368 608 q 313 392 313 493 l 313 304 m 310 640 l 315 640 q 408 722 351 693 q 538 750 465 750 q 674 720 611 750 q 784 639 738 690 q 857 518 831 588 q 883 369 883 449 q 855 216 883 286 q 777 94 826 146 q 662 14 728 43 q 522 -15 596 -15 q 378 15 446 -15 q 271 93 311 44 l 165 0 l 118 0 l 118 826 q 100 1006 118 957 q 90 1022 96 1015 q 74 1034 85 1029 q 46 1042 64 1039 q -1 1050 28 1046 l -1 1097 l 310 1153 l 310 640 z "},"q":{"ha":936,"x_min":54,"x_max":953,"o":"m 624 432 q 609 526 624 483 q 569 601 594 569 q 510 651 544 633 q 436 669 476 669 q 308 593 353 669 q 264 374 264 517 q 308 153 264 229 q 436 76 353 76 q 527 103 486 76 q 592 178 568 129 q 624 346 624 246 l 624 432 m 626 86 l 619 86 q 522 10 571 33 q 407 -14 472 -14 q 266 15 331 -14 q 154 94 201 43 q 81 214 107 144 q 54 365 54 283 q 81 520 54 450 q 155 642 107 590 q 269 722 203 693 q 414 750 335 750 q 651 656 553 750 l 757 736 l 818 736 l 818 -118 q 822 -210 818 -176 q 839 -261 825 -243 q 880 -285 853 -279 q 953 -292 907 -290 l 953 -347 l 456 -347 l 456 -292 q 539 -283 506 -290 q 592 -256 572 -275 q 619 -206 611 -237 q 626 -128 626 -175 l 626 86 z "},"j":{"ha":460,"x_min":-212,"x_max":353,"o":"m 342 -3 q 258 -269 342 -176 q 15 -361 174 -361 q -152 -322 -92 -361 q -212 -224 -212 -282 q -190 -170 -212 -189 q -137 -151 -167 -151 q -79 -173 -99 -151 q -44 -219 -60 -194 q -10 -266 -29 -244 q 46 -287 8 -287 q 123 -247 97 -287 q 149 -108 149 -207 l 149 403 q 145 528 149 479 q 138 594 142 576 q 107 638 131 626 q 19 650 83 650 l 19 697 l 342 750 l 342 -3 m 138 1044 q 169 1122 138 1090 q 244 1153 200 1153 q 322 1122 290 1153 q 353 1044 353 1090 q 322 969 353 1000 q 244 938 290 938 q 169 969 200 938 q 138 1044 138 1000 z "},"c":{"ha":783,"x_min":54,"x_max":744,"o":"m 733 115 q 602 25 681 57 q 432 -7 524 -7 q 278 20 347 -7 q 158 96 208 47 q 81 213 108 144 q 54 365 54 282 q 83 522 54 451 q 165 644 113 593 q 292 722 218 694 q 454 750 365 750 q 570 738 517 750 q 662 703 624 725 q 722 651 700 681 q 744 586 744 621 q 722 522 744 546 q 660 499 699 499 q 603 515 628 499 q 556 569 579 532 q 520 622 535 603 q 493 652 506 642 q 468 666 481 663 q 438 669 456 669 q 313 594 357 669 q 268 385 268 519 q 322 163 268 240 q 475 85 375 85 q 589 106 532 85 q 697 168 646 128 l 733 115 z "},"e":{"ha":813,"x_min":53,"x_max":763,"o":"m 750 129 q 435 -14 624 -14 q 278 13 349 -14 q 158 90 208 40 q 81 207 108 139 q 53 358 53 275 q 82 516 53 444 q 165 640 111 588 q 291 721 218 692 q 451 750 364 750 q 681 671 599 750 q 763 449 763 592 q 756 422 763 426 q 717 417 749 417 l 269 417 q 264 371 264 404 q 323 156 264 235 q 483 76 382 76 q 599 103 542 76 q 711 178 657 129 l 750 129 m 481 494 q 552 501 536 494 q 568 531 568 507 q 533 631 568 592 q 446 669 499 669 q 340 620 386 669 q 279 494 293 571 l 481 494 z "},"f":{"ha":615,"x_min":24,"x_max":742,"o":"m 24 736 l 174 736 l 174 814 q 199 951 174 889 q 271 1059 225 1014 q 381 1128 317 1104 q 525 1153 446 1153 q 612 1144 572 1153 q 681 1119 651 1135 q 726 1082 710 1104 q 742 1035 742 1060 q 718 982 742 1003 q 658 961 694 961 q 615 978 633 961 q 558 1039 596 994 q 524 1067 542 1058 q 486 1075 506 1075 q 399 1008 431 1075 q 367 822 367 940 l 367 736 l 601 736 l 601 660 l 367 660 l 367 231 q 373 144 367 178 q 397 92 379 111 q 443 65 414 72 q 518 56 472 57 l 518 0 l 49 0 l 49 56 q 115 63 90 57 q 153 87 140 69 q 169 135 165 104 q 174 219 174 167 l 174 660 l 24 660 l 24 736 z "},"g":{"ha":847,"x_min":31,"x_max":878,"o":"m 317 150 q 383 144 354 147 q 437 138 411 142 q 488 131 463 135 q 543 124 514 128 q 713 42 651 108 q 775 -121 775 -24 q 678 -300 775 -239 q 392 -361 581 -361 q 124 -310 218 -361 q 31 -167 31 -260 q 68 -58 31 -94 q 163 -21 106 -21 q 233 -35 199 -21 q 290 -78 267 -50 q 231 -110 254 -85 q 208 -171 208 -136 q 258 -256 208 -226 q 403 -286 307 -286 q 611 -154 611 -286 q 580 -73 611 -107 q 490 -32 549 -39 l 247 1 q 93 139 93 22 q 130 232 93 196 q 235 282 167 268 l 235 288 q 177 322 203 300 q 132 374 151 344 q 102 437 113 403 q 92 507 92 471 q 113 603 92 558 q 173 681 135 649 q 263 731 211 713 q 376 750 315 750 q 493 732 436 750 q 590 682 550 714 q 646 715 622 701 q 690 735 669 728 q 726 747 710 743 q 760 750 743 750 q 845 726 813 750 q 878 664 878 703 q 860 616 878 635 q 813 597 842 597 q 779 606 792 597 q 755 627 767 615 q 731 648 743 639 q 697 657 718 657 q 642 619 668 657 q 661 569 656 596 q 667 506 667 542 q 650 408 667 453 q 598 330 633 364 q 507 272 563 296 q 372 240 451 249 q 280 222 306 233 q 254 189 254 211 q 317 150 254 156 m 383 319 q 453 367 428 319 q 478 499 478 414 q 453 631 478 585 q 382 678 428 678 q 307 631 335 678 q 279 501 279 583 q 308 369 279 418 q 383 319 336 319 z "},"k":{"ha":922,"x_min":22,"x_max":929,"o":"m 497 56 q 560 59 542 56 q 578 74 578 63 q 559 115 578 82 q 511 190 540 147 l 406 349 l 336 282 l 336 228 q 340 140 336 174 q 355 88 344 107 q 384 63 365 69 q 432 56 403 56 l 432 0 l 22 0 l 22 56 q 85 64 61 57 q 122 88 108 71 q 141 137 136 106 q 146 218 146 168 l 146 807 q 143 940 146 892 q 128 1013 140 989 q 92 1043 117 1038 q 26 1049 68 1049 l 26 1100 l 336 1153 l 336 381 l 469 507 q 572 609 542 575 q 603 658 603 643 q 577 676 603 671 q 482 681 551 681 l 482 736 l 861 736 l 861 681 q 768 663 808 681 q 681 600 728 644 l 546 474 l 786 133 q 849 72 818 89 q 929 56 879 56 l 929 0 l 497 0 l 497 56 z "},"s":{"ha":647,"x_min":75,"x_max":597,"o":"m 118 0 l 75 0 l 75 253 l 133 253 q 201 107 157 153 q 317 61 246 61 q 397 83 368 61 q 425 142 425 104 q 390 217 425 181 q 278 296 356 254 q 126 409 172 353 q 81 536 81 465 q 98 622 81 582 q 145 690 115 661 q 217 735 175 719 q 307 751 258 751 q 392 739 350 751 q 467 704 435 726 l 492 738 l 528 738 l 528 528 l 474 528 q 408 642 442 607 q 325 676 374 676 q 263 656 286 676 q 240 600 240 635 q 274 526 240 561 q 388 450 308 492 q 483 390 443 419 q 549 331 524 361 q 585 269 574 301 q 597 199 597 236 q 579 111 597 150 q 528 44 561 72 q 448 1 494 17 q 344 -14 401 -14 q 233 2 285 -14 q 149 49 182 18 l 118 0 z "},"t":{"ha":531,"x_min":35,"x_max":522,"o":"m 35 660 l 35 722 q 174 794 118 746 q 258 904 231 842 l 329 904 l 329 736 l 489 736 l 489 660 l 329 660 l 329 233 q 348 111 329 147 q 411 75 367 75 q 493 125 465 75 l 522 85 q 339 -14 483 -14 q 190 31 243 -14 q 136 156 136 75 l 136 660 l 35 660 z "},"v":{"ha":867,"x_min":10,"x_max":867,"o":"m 140 557 q 111 622 125 597 q 83 659 97 646 q 51 676 68 672 q 10 681 33 681 l 10 736 l 425 736 l 425 681 q 370 678 390 681 q 340 669 350 675 q 326 655 329 664 q 324 635 324 646 q 331 593 324 617 q 347 546 338 569 l 479 182 l 485 182 l 633 544 q 649 587 643 568 q 654 621 654 606 q 633 665 654 651 q 560 681 613 679 l 560 736 l 867 736 l 867 681 q 802 661 829 681 q 746 575 775 642 l 486 -14 l 360 -14 l 140 557 z "},"w":{"ha":1238,"x_min":11,"x_max":1236,"o":"m 435 -14 l 331 -14 l 140 557 q 89 651 118 624 q 11 681 60 678 l 11 736 l 408 736 l 408 681 q 339 666 358 679 q 319 621 319 653 q 324 588 319 606 q 335 546 328 569 l 422 221 l 428 221 l 622 736 l 736 736 l 882 221 l 889 221 l 1000 508 q 1019 569 1014 543 q 1025 614 1025 594 q 1001 665 1025 650 q 938 681 978 681 l 938 736 l 1236 736 l 1236 681 q 1194 675 1211 681 q 1161 649 1178 669 q 1125 585 1144 628 q 1076 467 1106 542 l 885 -14 l 775 -14 l 628 479 l 622 479 l 435 -14 z "},"x":{"ha":900,"x_min":13,"x_max":896,"o":"m 564 561 q 603 614 593 599 q 613 644 613 629 q 597 672 613 664 q 543 681 581 681 l 543 736 l 863 736 l 863 681 q 815 675 836 679 q 774 659 794 671 q 731 626 753 647 q 679 572 708 606 l 538 408 l 757 126 q 819 70 789 85 q 896 56 850 56 l 896 0 l 454 0 l 454 56 q 510 63 494 56 q 526 89 526 69 q 517 122 526 104 q 488 167 507 139 l 407 278 l 346 204 q 308 157 322 175 q 288 128 294 139 q 278 110 281 117 q 276 99 276 104 q 297 65 276 75 q 361 56 317 56 l 361 0 l 13 0 l 13 56 q 99 69 57 56 q 164 110 140 82 l 357 336 l 125 631 q 78 672 99 664 q 24 681 58 681 l 24 736 l 447 736 l 447 681 q 376 642 376 681 q 392 606 376 628 l 490 467 l 564 561 z "},"y":{"ha":897,"x_min":11,"x_max":908,"o":"m 399 -218 q 360 -275 383 -249 q 309 -320 338 -301 q 250 -350 281 -339 q 189 -361 219 -361 q 115 -339 143 -361 q 88 -279 88 -317 q 112 -225 88 -244 q 190 -201 136 -206 q 350 -124 314 -192 l 388 -51 l 142 557 q 113 621 125 597 q 88 658 101 644 q 56 675 74 671 q 11 681 38 679 l 11 736 l 432 736 l 432 681 q 356 670 378 681 q 335 632 335 660 q 338 606 335 621 q 347 576 342 592 l 489 171 l 494 171 l 614 442 q 644 513 632 485 q 663 562 657 542 q 672 594 669 582 q 675 619 675 607 q 655 668 675 656 q 574 681 635 681 l 574 736 l 908 736 l 908 681 q 861 673 881 681 q 822 642 842 665 q 777 572 801 618 q 717 449 753 525 l 399 -218 z "},"z":{"ha":789,"x_min":36,"x_max":739,"o":"m 722 0 l 36 0 l 36 32 l 471 663 l 343 663 q 246 658 283 663 q 185 637 208 653 q 151 593 163 621 q 131 519 139 565 l 76 519 l 93 736 l 719 736 l 719 704 l 292 75 l 414 75 q 533 81 486 75 q 610 105 581 88 q 656 153 639 122 q 685 236 672 185 l 739 236 l 722 0 z "},"I":{"ha":596,"x_min":50,"x_max":546,"o":"m 546 0 l 50 0 l 50 56 q 126 65 97 57 q 169 93 154 72 q 190 152 185 114 q 196 256 196 190 l 196 814 q 191 910 196 872 q 172 971 186 949 q 133 1002 158 993 q 64 1014 107 1011 l 64 1069 l 532 1069 l 532 1014 q 463 1002 489 1011 q 424 971 438 993 q 405 910 410 949 q 400 814 400 872 l 400 256 q 405 152 400 190 q 426 93 410 114 q 470 65 442 72 q 546 56 499 57 l 546 0 z "},"H":{"ha":1313,"x_min":49,"x_max":1264,"o":"m 1118 224 q 1123 138 1118 171 q 1144 88 1128 106 q 1188 64 1160 71 q 1264 56 1217 57 l 1264 0 l 754 0 l 754 56 q 837 64 806 57 q 885 88 868 71 q 908 135 903 104 q 914 214 914 165 l 914 504 l 399 504 l 399 224 q 404 138 399 171 q 426 88 410 106 q 474 64 443 71 q 557 56 506 57 l 557 0 l 49 0 l 49 56 q 124 64 96 57 q 168 88 153 71 q 189 135 183 104 q 194 214 194 165 l 194 856 q 190 934 194 904 q 171 981 185 964 q 131 1005 157 999 q 64 1014 106 1011 l 64 1069 l 543 1069 l 543 1014 q 467 1006 496 1013 q 424 981 439 999 q 403 931 408 963 q 399 846 399 899 l 399 590 l 914 590 l 914 856 q 908 934 914 904 q 888 981 903 964 q 844 1005 872 999 q 768 1014 815 1011 l 768 1069 l 1249 1069 l 1249 1014 q 1181 1006 1207 1013 q 1142 981 1156 999 q 1123 931 1128 963 q 1118 846 1118 899 l 1118 224 z "},"L":{"ha":1049,"x_min":49,"x_max":1028,"o":"m 1006 0 l 49 0 l 49 56 q 124 64 94 57 q 168 88 153 71 q 189 135 183 104 q 194 214 194 165 l 194 856 q 190 934 194 904 q 171 981 185 964 q 131 1005 157 999 q 64 1014 106 1011 l 64 1069 l 543 1069 l 543 1014 q 467 1006 496 1013 q 424 981 439 999 q 403 931 408 963 q 399 846 399 899 l 399 264 q 410 169 399 206 q 451 112 422 132 q 529 84 481 92 q 650 76 578 76 q 785 86 731 76 q 876 123 839 96 q 935 196 913 150 q 972 315 957 242 l 1028 315 l 1006 0 z "},"E":{"ha":1061,"x_min":49,"x_max":1013,"o":"m 399 592 q 542 597 488 592 q 626 620 596 603 q 668 671 656 638 q 688 761 681 704 l 739 761 l 739 354 l 688 354 q 665 443 679 410 q 621 494 651 476 q 538 516 590 511 q 399 521 486 521 l 399 235 q 410 160 399 190 q 450 110 422 129 q 524 84 478 92 q 636 76 569 76 q 770 88 715 76 q 861 126 825 99 q 919 201 897 154 q 957 318 942 247 l 1013 318 l 990 0 l 49 0 l 49 56 q 124 64 94 57 q 168 88 153 71 q 189 135 183 104 q 194 214 194 165 l 194 856 q 190 934 194 904 q 171 981 185 964 q 131 1005 157 999 q 64 1014 106 1011 l 64 1069 l 942 1069 l 951 797 l 892 797 q 865 894 883 856 q 815 955 847 932 q 733 987 783 978 q 608 996 682 996 l 451 996 q 407 987 415 996 q 399 944 399 978 l 399 592 z "},"F":{"ha":957,"x_min":49,"x_max":931,"o":"m 399 224 q 406 138 399 171 q 434 88 413 106 q 495 64 456 71 q 601 56 535 57 l 601 0 l 49 0 l 49 56 q 124 64 94 57 q 168 88 153 71 q 189 135 183 104 q 194 214 194 165 l 194 856 q 190 934 194 904 q 171 981 185 964 q 131 1005 157 999 q 64 1014 106 1011 l 64 1069 l 914 1069 l 931 776 l 872 776 q 848 877 864 836 q 803 944 832 918 q 728 981 774 969 q 615 992 682 992 l 424 992 q 399 968 399 992 l 399 567 q 537 574 483 567 q 622 601 590 581 q 668 656 654 621 q 688 747 682 690 l 739 747 l 739 313 l 688 313 q 664 406 679 371 q 617 460 649 442 q 533 486 586 479 q 399 493 481 493 l 399 224 z "},"J":{"ha":565,"x_min":-233,"x_max":517,"o":"m 181 856 q 176 934 181 904 q 157 981 171 964 q 117 1005 143 999 q 49 1014 92 1011 l 49 1069 l 517 1069 l 517 1014 q 447 1006 474 1013 q 407 981 421 999 q 389 931 393 963 q 385 846 385 899 l 385 -3 q 296 -269 385 -178 q 31 -361 207 -361 q -165 -318 -96 -361 q -233 -208 -233 -275 q -208 -147 -233 -168 q -144 -125 -182 -125 q -94 -142 -112 -125 q -47 -204 -75 -158 q 3 -265 -19 -250 q 57 -281 25 -281 q 149 -215 117 -281 q 181 -32 181 -150 l 181 856 z "},"K":{"ha":1142,"x_min":49,"x_max":1171,"o":"m 399 224 q 403 139 399 171 q 422 89 408 107 q 462 64 436 71 q 531 56 488 57 l 531 0 l 49 0 l 49 56 q 124 64 94 57 q 168 88 153 71 q 189 135 183 104 q 194 214 194 165 l 194 856 q 190 933 194 903 q 171 981 185 964 q 131 1004 157 997 q 64 1014 106 1011 l 64 1069 l 543 1069 l 543 1014 q 467 1006 496 1013 q 424 981 439 999 q 403 931 408 963 q 399 846 399 899 l 399 538 l 758 924 q 790 982 790 958 q 770 1006 790 997 q 696 1014 750 1014 l 696 1069 l 1075 1069 l 1075 1015 q 1022 1010 1044 1014 q 976 992 999 1006 q 924 952 953 978 q 854 883 896 926 l 607 625 l 1015 128 q 1080 75 1044 92 q 1171 56 1115 58 l 1171 0 l 657 0 l 657 56 q 739 65 714 57 q 764 93 764 74 q 762 106 764 100 q 755 122 760 113 q 740 144 750 131 q 714 176 731 157 l 468 479 l 399 407 l 399 224 z "},"M":{"ha":1590,"x_min":42,"x_max":1549,"o":"m 807 260 l 1128 1069 l 1533 1069 l 1533 1014 q 1459 1005 1488 1014 q 1415 972 1431 996 q 1395 908 1400 949 q 1390 804 1390 867 l 1390 265 q 1396 156 1390 196 q 1418 93 1401 115 q 1466 64 1435 71 q 1549 56 1497 57 l 1549 0 l 1026 0 l 1026 56 q 1109 65 1078 57 q 1158 93 1140 72 q 1181 152 1175 114 q 1186 256 1186 190 l 1186 906 l 1179 906 l 806 -14 l 703 -14 l 317 906 l 311 906 l 311 265 q 317 156 311 196 q 339 93 322 115 q 387 64 356 71 q 469 56 418 57 l 469 0 l 42 0 l 42 56 q 125 65 93 57 q 174 93 157 72 q 197 152 192 114 q 203 256 203 190 l 203 814 q 197 911 203 872 q 176 973 192 950 q 133 1005 161 996 q 57 1014 104 1014 l 57 1069 l 478 1069 l 801 260 l 807 260 z "},"A":{"ha":1124,"x_min":-18,"x_max":1164,"o":"m 696 324 l 303 324 q 238 119 238 176 q 269 67 238 78 q 363 56 300 56 l 363 0 l -18 0 l -18 56 q 40 67 15 60 q 83 86 64 74 q 115 119 101 99 q 142 168 129 139 l 507 1083 l 610 1083 l 942 272 q 991 161 971 201 q 1034 99 1011 121 q 1087 69 1057 78 q 1164 57 1117 61 l 1164 0 l 639 0 l 639 57 q 735 71 706 60 q 764 115 764 82 q 754 165 764 135 q 728 240 744 196 l 696 324 m 335 407 l 665 407 l 506 828 l 500 828 l 335 407 z "},"O":{"ha":1310,"x_min":63,"x_max":1249,"o":"m 656 1083 q 889 1040 781 1083 q 1077 922 997 997 q 1203 746 1157 847 q 1249 526 1249 644 q 1202 315 1249 414 q 1076 144 1156 217 q 888 28 996 71 q 656 -14 779 -14 q 424 28 532 -14 q 235 144 315 71 q 108 315 154 217 q 63 526 63 414 q 108 746 63 644 q 234 922 154 847 q 422 1040 314 997 q 656 1083 531 1083 m 656 76 q 801 108 736 76 q 913 197 867 139 q 983 337 958 254 q 1007 522 1007 419 q 983 717 1007 631 q 913 866 958 804 q 801 960 867 928 q 656 993 736 993 q 509 960 574 993 q 399 866 444 928 q 328 717 353 804 q 304 522 304 631 q 328 337 304 419 q 399 197 353 254 q 509 108 444 139 q 656 76 574 76 z "},"Q":{"ha":1318,"x_min":64,"x_max":1304,"o":"m 654 1083 q 890 1040 781 1083 q 1081 922 1000 997 q 1209 744 1163 846 q 1256 525 1256 642 q 1185 262 1256 382 q 989 60 1115 142 q 944 33 965 44 q 894 8 922 21 q 830 -18 867 -4 q 742 -50 793 -32 q 690 -69 711 -61 q 651 -85 668 -78 q 622 -101 635 -93 q 596 -117 608 -108 l 596 -122 q 621 -120 606 -121 q 650 -119 636 -119 q 763 -133 710 -119 q 869 -161 817 -146 q 974 -190 921 -176 q 1085 -203 1026 -203 q 1189 -179 1151 -203 q 1247 -100 1226 -156 l 1299 -100 q 1303 -133 1301 -118 q 1304 -160 1304 -149 q 1285 -240 1304 -203 q 1231 -303 1265 -276 q 1149 -346 1196 -331 q 1047 -361 1101 -361 q 903 -335 969 -361 q 775 -276 836 -308 q 658 -218 714 -244 q 549 -192 603 -192 q 488 -204 511 -192 q 445 -231 464 -217 q 408 -258 426 -246 q 363 -271 389 -271 q 325 -260 339 -271 q 311 -232 311 -249 q 333 -188 311 -208 q 413 -136 354 -168 l 588 -37 q 381 19 476 -28 q 215 142 285 67 q 104 315 144 217 q 64 524 64 413 q 109 744 64 642 q 233 922 154 847 q 421 1040 313 997 q 654 1083 529 1083 m 654 42 q 803 76 736 42 q 916 172 869 110 q 988 324 963 235 q 1014 521 1014 413 q 988 717 1014 629 q 916 865 963 804 q 803 960 869 926 q 654 993 736 993 q 508 960 572 993 q 399 867 443 928 q 330 718 354 806 q 306 521 306 631 q 330 321 306 410 q 399 170 354 232 q 509 75 444 108 q 654 42 574 42 z "},"C":{"ha":1143,"x_min":65,"x_max":1076,"o":"m 982 1069 l 1050 1069 l 1022 718 l 967 718 q 853 919 938 846 q 650 993 769 993 q 504 960 568 993 q 397 867 440 928 q 330 720 353 807 q 307 525 307 633 q 395 194 307 310 q 656 78 483 78 q 885 153 794 78 q 1015 376 976 228 l 1076 376 l 1076 0 l 1011 0 l 992 110 q 621 -14 839 -14 q 392 24 494 -14 q 217 130 289 61 q 105 297 144 199 q 65 517 65 396 q 107 747 65 643 q 224 926 149 851 q 405 1042 300 1001 q 638 1083 510 1083 q 796 1060 722 1083 q 956 983 869 1036 l 982 1069 z "},"G":{"ha":1217,"x_min":65,"x_max":1196,"o":"m 608 -14 q 383 23 483 -14 q 212 128 282 60 q 103 295 142 197 q 65 515 65 393 q 106 747 65 642 q 221 926 147 851 q 397 1042 294 1001 q 625 1083 500 1083 q 789 1060 711 1083 q 957 983 867 1036 l 983 1069 l 1033 1069 l 1033 718 l 964 718 q 852 921 936 849 q 642 993 768 993 q 394 870 482 993 q 306 526 306 747 q 392 194 306 310 q 642 79 478 79 q 826 140 760 79 q 892 307 892 200 q 858 401 892 371 q 746 438 825 431 l 746 493 l 1196 493 l 1196 438 q 1101 408 1128 438 q 1075 300 1075 378 l 1075 115 q 1024 113 1044 115 q 983 105 1003 111 q 938 85 963 99 q 875 49 913 71 q 608 -14 768 -14 z "},"D":{"ha":1276,"x_min":49,"x_max":1213,"o":"m 49 0 l 49 56 q 123 63 94 57 q 167 87 151 69 q 189 134 183 104 q 194 214 194 164 l 194 856 q 190 934 194 904 q 172 981 186 964 q 134 1005 158 999 q 71 1014 110 1011 l 71 1069 l 599 1069 q 844 1028 732 1069 q 1039 913 957 986 q 1167 738 1121 839 q 1213 517 1213 636 q 1169 308 1213 403 q 1049 144 1126 213 q 865 38 972 76 q 628 0 757 0 l 49 0 m 422 985 q 399 961 399 985 l 399 243 q 449 124 399 163 q 603 85 499 85 q 883 194 785 85 q 981 514 981 304 q 954 713 981 625 q 878 860 928 800 q 756 953 828 921 q 596 985 685 985 l 422 985 z "},"B":{"ha":1107,"x_min":46,"x_max":1053,"o":"m 46 0 l 46 56 q 122 64 93 57 q 166 88 150 71 q 188 135 182 104 q 193 214 193 165 l 193 856 q 189 934 193 904 q 172 981 185 964 q 135 1005 158 999 q 75 1014 113 1011 l 75 1069 l 521 1069 q 844 1002 731 1069 q 957 810 957 935 q 719 576 957 644 l 719 571 q 858 549 796 571 q 963 489 919 528 q 1029 397 1006 450 q 1053 282 1053 344 q 1019 158 1053 211 q 921 69 985 106 q 581 0 797 0 l 46 0 m 590 85 q 814 286 814 85 q 733 467 814 410 q 626 508 692 496 q 464 521 560 521 l 397 521 l 397 243 q 442 121 397 157 q 590 85 486 85 m 479 604 q 588 616 542 604 q 665 650 633 628 q 732 793 732 696 q 682 940 732 894 q 521 985 632 985 l 422 985 q 397 961 397 985 l 397 604 l 479 604 z "},"V":{"ha":1118,"x_min":-43,"x_max":1139,"o":"m 608 239 l 789 701 q 831 813 815 769 q 856 883 847 856 q 867 928 864 911 q 869 960 869 944 q 844 1003 869 993 q 744 1014 819 1014 l 744 1069 l 1139 1069 l 1139 1014 q 979 901 1024 1014 l 614 -14 l 511 -14 l 179 797 q 129 904 151 863 q 82 970 107 946 q 27 1003 57 994 q -43 1013 -3 1013 l -43 1069 l 482 1069 l 482 1013 q 422 1008 446 1011 q 383 999 397 1006 q 364 983 369 993 q 358 957 358 972 q 365 911 358 938 q 386 847 372 885 l 608 239 z "},"N":{"ha":1306,"x_min":42,"x_max":1276,"o":"m 931 -14 l 315 863 l 310 863 l 310 265 q 315 156 310 196 q 335 93 319 115 q 380 64 351 71 q 454 56 408 57 l 454 0 l 42 0 l 42 56 q 124 65 93 57 q 173 93 156 72 q 196 152 190 114 q 201 256 201 190 l 201 814 q 196 910 201 872 q 175 971 190 949 q 131 1002 160 993 q 56 1014 103 1011 l 56 1069 l 443 1069 l 1003 267 l 1008 267 l 1008 804 q 1003 913 1008 872 q 983 976 999 954 q 938 1006 967 999 q 864 1014 910 1013 l 864 1069 l 1276 1069 l 1276 1014 q 1194 1005 1225 1013 q 1145 976 1163 997 q 1122 917 1128 956 q 1117 814 1117 878 l 1117 -14 l 931 -14 z "},"P":{"ha":996,"x_min":49,"x_max":972,"o":"m 972 772 q 856 544 972 622 q 517 465 739 465 l 399 465 l 399 221 q 406 135 399 168 q 435 85 413 103 q 496 61 457 67 q 600 56 535 56 l 600 0 l 49 0 l 49 56 q 124 64 94 57 q 168 88 153 71 q 189 135 183 104 q 194 214 194 165 l 194 856 q 190 934 194 904 q 171 981 185 964 q 131 1005 157 999 q 64 1014 106 1011 l 64 1069 l 544 1069 q 864 994 756 1069 q 972 772 972 919 m 399 549 l 489 549 q 686 603 624 549 q 749 774 749 657 q 696 935 749 878 q 531 992 643 992 l 424 992 q 399 968 399 992 l 399 549 z "},"R":{"ha":1132,"x_min":49,"x_max":1181,"o":"m 965 801 q 899 608 965 686 q 686 504 832 531 l 1008 135 q 1088 76 1042 96 q 1181 56 1133 56 l 1181 0 l 851 0 l 507 422 q 447 478 472 464 q 399 493 421 493 l 399 221 q 406 137 399 169 q 433 86 413 104 q 494 62 454 68 q 600 56 533 56 l 600 0 l 49 0 l 49 56 q 123 62 94 56 q 167 85 151 68 q 189 134 183 103 q 194 214 194 165 l 194 856 q 190 934 194 904 q 172 981 186 964 q 133 1005 158 999 q 64 1014 107 1011 l 64 1069 l 544 1069 q 856 999 746 1069 q 965 801 965 928 m 399 576 l 489 576 q 684 627 619 576 q 749 794 749 678 q 694 938 749 883 q 544 992 640 992 l 424 992 q 399 968 399 992 l 399 576 z "},"S":{"ha":921,"x_min":75,"x_max":858,"o":"m 75 354 l 129 354 q 235 147 149 222 q 447 71 321 71 q 542 83 499 71 q 615 119 585 96 q 663 173 646 142 q 679 243 679 204 q 669 301 679 276 q 629 348 658 325 q 549 394 600 371 q 418 449 499 418 q 178 594 256 511 q 100 789 100 676 q 125 908 100 854 q 195 1001 150 963 q 303 1062 240 1040 q 443 1083 367 1083 q 576 1061 514 1083 q 700 994 639 1039 l 725 1064 l 758 1064 l 774 764 l 719 764 q 615 938 686 878 q 451 999 544 999 q 312 956 365 999 q 258 847 258 914 q 268 795 258 818 q 304 751 278 772 q 376 709 331 731 q 494 661 422 688 q 660 585 592 624 q 773 503 729 547 q 838 411 817 460 q 858 304 858 363 q 828 175 858 233 q 742 75 797 117 q 612 10 688 33 q 444 -14 536 -14 q 294 9 361 -14 q 157 83 228 32 l 129 0 l 96 0 l 75 354 z "},"T":{"ha":1149,"x_min":17,"x_max":1132,"o":"m 1132 764 l 1072 764 q 1052 877 1068 832 q 1007 949 1036 922 q 936 987 978 976 q 839 997 894 997 q 752 995 785 997 q 702 988 719 993 q 679 975 685 983 q 674 954 674 967 l 674 226 q 680 150 674 182 q 706 98 686 118 q 763 67 725 78 q 861 56 800 57 l 861 0 l 279 0 l 279 56 q 379 67 342 57 q 437 98 417 78 q 463 150 457 118 q 469 226 469 182 l 469 954 q 465 975 469 967 q 444 988 460 983 q 401 995 429 993 q 326 997 372 997 q 231 992 276 997 q 150 965 185 988 q 94 895 115 942 q 71 764 72 849 l 17 764 l 31 1069 l 1118 1069 l 1132 764 z "},"U":{"ha":1222,"x_min":38,"x_max":1211,"o":"m 1051 431 q 1026 228 1051 313 q 946 90 1000 144 q 806 11 892 36 q 601 -14 721 -14 q 274 80 378 -14 q 171 379 171 174 l 171 760 q 169 851 171 814 q 165 913 168 888 q 158 953 163 938 q 146 981 153 969 q 110 1007 133 1000 q 38 1014 86 1014 l 38 1069 l 536 1069 l 536 1014 q 450 1008 478 1014 q 407 983 422 1001 q 391 956 397 972 q 381 915 385 940 q 376 851 378 889 q 375 760 375 814 l 375 396 q 442 162 375 238 q 650 86 510 86 q 936 404 936 86 l 936 725 q 934 825 936 783 q 927 896 932 867 q 915 944 922 925 q 896 976 907 964 q 846 1005 876 996 q 761 1014 815 1014 l 761 1069 l 1211 1069 l 1211 1014 q 1132 1006 1160 1014 q 1089 979 1104 999 q 1071 947 1078 967 q 1060 897 1064 926 q 1053 825 1056 867 q 1051 725 1051 783 l 1051 431 z "},"W":{"ha":1704,"x_min":-39,"x_max":1725,"o":"m 1232 269 l 1419 806 q 1453 944 1453 899 q 1423 1001 1453 988 q 1331 1014 1393 1014 l 1331 1069 l 1725 1069 l 1725 1014 q 1630 988 1672 1014 q 1565 901 1588 963 l 1231 -14 l 1107 -14 l 865 719 l 590 -14 l 475 -14 l 181 797 q 132 911 154 868 q 85 976 110 954 q 31 1006 60 999 q -39 1013 1 1013 l -39 1069 l 486 1069 l 486 1013 q 389 999 415 1013 q 363 956 363 986 q 364 934 363 944 q 369 910 365 924 q 380 878 374 897 q 397 829 386 858 l 592 269 l 817 883 q 789 944 803 921 q 756 982 775 968 q 714 1002 738 996 q 657 1013 690 1008 l 657 1069 l 1147 1069 l 1147 1013 q 1061 998 1089 1013 q 1033 942 1033 983 q 1040 893 1033 921 q 1057 829 1046 865 l 1232 269 z "},"X":{"ha":1178,"x_min":-3,"x_max":1193,"o":"m 1008 154 q 1090 81 1043 107 q 1193 56 1136 56 l 1193 0 l 675 0 l 675 56 q 731 58 710 56 q 765 65 753 61 q 780 76 776 69 q 783 92 783 83 q 780 109 783 100 q 768 132 776 118 q 746 167 760 146 q 710 218 732 188 l 561 429 l 465 311 q 406 242 435 274 q 355 182 378 210 q 318 133 332 154 q 304 94 304 111 q 332 64 304 72 q 424 56 360 56 l 424 0 l -3 0 l -3 56 q 62 59 35 56 q 110 72 89 63 q 151 99 132 82 q 193 144 169 117 l 497 515 l 174 935 q 99 999 136 983 q 14 1014 61 1014 l 14 1069 l 536 1069 l 536 1014 q 464 1001 486 1014 q 442 964 442 989 q 483 871 442 926 l 626 674 l 806 888 q 835 933 826 913 q 844 971 844 953 q 840 989 844 981 q 824 1003 836 997 q 790 1011 813 1008 q 732 1014 768 1014 l 732 1069 l 1146 1069 l 1146 1014 q 1056 1006 1088 1014 q 1003 972 1024 997 l 693 589 l 1008 154 z "},"Y":{"ha":1056,"x_min":-19,"x_max":1085,"o":"m 140 894 q 102 954 119 931 q 67 991 85 978 q 28 1009 49 1004 q -19 1014 7 1014 l -19 1069 l 447 1069 l 447 1014 q 365 1003 389 1014 q 342 969 342 992 q 350 936 342 956 q 376 883 358 917 l 575 504 l 581 504 l 756 796 q 819 912 801 874 q 838 972 838 950 q 816 1005 838 996 q 736 1014 794 1014 l 736 1069 l 1085 1069 l 1085 1014 q 1029 1004 1054 1014 q 977 966 1004 994 q 916 887 950 938 q 835 754 882 836 l 632 407 l 632 265 q 638 154 632 196 q 660 91 644 113 q 704 63 676 69 q 776 56 732 56 l 776 0 l 282 0 l 282 56 q 353 63 325 56 q 399 90 382 69 q 422 151 415 111 q 428 256 428 190 l 428 383 l 140 894 z "},"Z":{"ha":1107,"x_min":21,"x_max":1056,"o":"m 1038 0 l 21 0 l 21 32 l 719 997 l 368 997 q 213 946 265 997 q 142 786 161 894 l 88 786 l 110 1069 l 1010 1069 l 1010 1038 l 318 78 l 715 78 q 838 90 790 78 q 916 135 886 103 q 963 219 946 167 q 992 354 979 272 l 1056 354 l 1038 0 z "},".":{"ha":361,"x_min":75,"x_max":286,"o":"m 75 89 q 105 165 75 133 q 179 196 135 196 q 256 165 225 196 q 286 89 286 133 q 256 16 286 46 q 179 -14 225 -14 q 105 16 135 -14 q 75 89 75 46 z "},":":{"ha":394,"x_min":92,"x_max":303,"o":"m 92 89 q 122 165 92 133 q 196 196 151 196 q 272 165 242 196 q 303 89 303 133 q 272 16 303 46 q 196 -14 242 -14 q 122 16 151 -14 q 92 89 92 46 m 92 528 q 122 603 92 572 q 196 635 151 635 q 272 603 242 635 q 303 528 303 572 q 272 455 303 485 q 196 425 242 425 q 122 455 151 425 q 92 528 92 485 z "},";":{"ha":410,"x_min":68,"x_max":313,"o":"m 68 -157 q 178 -67 143 -107 q 214 11 214 -26 q 195 3 207 7 q 172 0 183 0 q 122 26 143 0 q 101 89 101 53 q 131 165 101 135 q 206 196 161 196 q 283 161 254 196 q 313 67 313 126 q 263 -77 313 -8 q 108 -215 213 -146 l 68 -157 m 101 528 q 131 603 101 572 q 206 635 161 635 q 282 603 251 635 q 313 528 313 572 q 282 455 313 485 q 206 425 251 425 q 131 455 161 425 q 101 528 101 485 z "},",":{"ha":364,"x_min":42,"x_max":286,"o":"m 42 -157 q 152 -67 117 -107 q 188 11 188 -26 q 169 3 181 7 q 146 0 157 0 q 96 26 117 0 q 75 89 75 53 q 105 165 75 135 q 179 196 135 196 q 257 161 228 196 q 286 67 286 126 q 236 -77 286 -8 q 82 -215 186 -146 l 42 -157 z "},"'":{"ha":296,"x_min":67,"x_max":229,"o":"m 119 769 q 103 853 113 807 q 86 942 94 899 q 72 1019 78 985 q 67 1071 67 1054 q 90 1130 67 1107 q 147 1153 113 1153 q 206 1129 183 1153 q 229 1069 229 1106 q 223 1018 229 1053 q 208 941 217 983 q 191 853 200 899 q 176 769 182 807 l 119 769 z "},"\"":{"ha":544,"x_min":67,"x_max":478,"o":"m 119 769 q 103 853 113 807 q 86 942 94 899 q 72 1019 78 985 q 67 1071 67 1054 q 90 1130 67 1107 q 147 1153 113 1153 q 206 1129 183 1153 q 229 1069 229 1106 q 223 1018 229 1053 q 208 941 217 983 q 191 853 200 899 q 176 769 182 807 l 119 769 m 369 769 q 353 853 363 807 q 336 942 344 899 q 322 1019 328 985 q 315 1071 315 1054 q 338 1130 315 1107 q 397 1153 361 1153 q 455 1129 432 1153 q 478 1069 478 1106 q 472 1018 478 1053 q 458 941 467 983 q 441 853 450 899 q 426 769 432 807 l 369 769 z "},"!":{"ha":432,"x_min":107,"x_max":324,"o":"m 174 288 q 165 501 174 414 q 146 656 157 589 q 132 734 139 697 q 119 806 125 771 q 110 878 114 842 q 107 958 107 915 q 215 1083 107 1083 q 324 958 324 1083 q 320 878 324 915 q 311 806 317 842 q 299 734 306 771 q 285 656 292 697 q 265 502 274 589 q 257 288 257 415 l 174 288 m 111 90 q 142 165 111 135 q 217 196 172 196 q 292 165 261 196 q 322 90 322 135 q 292 16 322 46 q 217 -14 261 -14 q 142 16 172 -14 q 111 90 111 46 z "},"?":{"ha":560,"x_min":75,"x_max":496,"o":"m 164 332 l 164 661 l 213 661 q 403 785 403 661 q 393 842 403 815 q 366 888 383 868 q 326 920 349 908 q 276 932 303 932 q 219 924 249 932 q 167 917 190 917 q 101 940 126 917 q 75 999 75 963 q 102 1062 75 1040 q 179 1083 129 1083 q 299 1055 242 1083 q 399 978 356 1026 q 469 867 443 931 q 496 736 496 804 q 433 562 496 624 q 258 500 371 500 l 258 332 l 164 332 m 100 90 q 131 165 100 135 q 206 196 161 196 q 281 165 250 196 q 311 90 311 135 q 281 16 311 46 q 206 -14 250 -14 q 131 16 161 -14 q 100 90 100 46 z "},"-":{"ha":635,"x_min":92,"x_max":543,"o":"m 92 338 l 92 467 l 543 467 l 543 338 l 92 338 z "},"—":{"ha":1581,"x_min":92,"x_max":1489,"o":"m 92 338 l 92 467 l 1489 467 l 1489 338 l 92 338 z "},"m":{"ha":1536,"x_min":36,"x_max":1515,"o":"m 358 229 q 361 138 358 171 q 376 87 364 104 q 413 64 389 69 q 478 56 436 58 l 478 0 l 39 0 l 39 56 q 106 64 81 58 q 143 86 131 69 q 160 134 156 103 q 164 218 164 165 l 164 390 q 162 522 164 469 q 154 594 160 575 q 144 623 150 613 q 124 640 138 633 q 90 648 111 646 q 36 650 69 650 l 36 697 l 304 750 l 321 629 l 329 629 q 447 722 388 694 q 583 750 506 750 q 735 718 675 750 q 825 626 794 686 l 831 626 q 950 717 881 685 q 1099 750 1019 750 q 1244 729 1182 750 q 1340 669 1306 708 q 1381 586 1368 638 q 1394 443 1394 535 l 1394 229 q 1398 139 1394 172 q 1414 88 1401 106 q 1450 64 1426 69 q 1515 56 1474 58 l 1515 0 l 1076 0 l 1076 56 q 1142 63 1118 57 q 1180 87 1167 69 q 1197 135 1193 104 q 1200 218 1200 165 l 1200 400 q 1192 522 1200 472 q 1165 603 1183 572 q 1117 647 1147 633 q 1044 660 1088 660 q 965 636 996 660 q 913 575 933 613 q 876 413 876 510 l 876 229 q 879 139 876 172 q 894 88 882 106 q 931 64 907 69 q 999 56 956 58 l 999 0 l 558 0 l 558 56 q 624 64 600 58 q 662 86 649 69 q 678 134 675 103 q 682 218 682 165 l 682 400 q 674 522 682 472 q 647 603 665 572 q 597 647 628 633 q 521 660 567 660 q 445 638 475 660 q 396 578 415 615 q 368 501 378 544 q 358 413 358 458 l 358 229 z "},"i":{"ha":501,"x_min":35,"x_max":478,"o":"m 357 228 q 361 139 357 172 q 378 88 365 106 q 414 63 390 69 q 478 56 438 57 l 478 0 l 40 0 l 40 56 q 103 65 79 57 q 141 90 128 72 q 159 138 154 107 q 164 218 164 169 l 164 389 q 161 522 164 469 q 154 593 158 574 q 123 639 147 628 q 35 650 99 650 l 35 697 l 357 750 l 357 228 m 153 1044 q 184 1122 153 1090 q 260 1153 215 1153 q 337 1122 306 1153 q 368 1044 368 1090 q 337 969 368 1000 q 260 938 306 938 q 184 969 215 938 q 153 1044 153 1000 z "},"a":{"ha":797,"x_min":47,"x_max":781,"o":"m 478 396 q 302 298 361 343 q 243 204 243 253 q 265 140 243 164 q 321 117 288 117 q 383 128 354 117 q 433 160 413 140 q 466 206 454 179 q 478 264 478 233 l 478 396 m 478 469 l 478 528 q 449 645 478 608 q 361 682 421 682 q 300 660 321 682 q 261 589 279 639 q 226 535 249 554 q 163 515 203 515 q 103 539 124 515 q 82 606 82 563 q 155 711 82 672 q 375 750 228 750 q 597 694 531 750 q 664 506 664 638 l 664 201 q 711 83 664 83 q 760 101 738 83 l 781 61 q 720 6 761 26 q 628 -14 679 -14 q 531 25 564 -14 q 497 135 497 64 l 490 135 q 386 25 450 63 q 240 -12 322 -12 q 100 37 153 -12 q 47 165 47 86 q 101 280 47 226 q 282 385 156 333 l 478 469 z "}}}
